<svg id="Layer_1" data-name="Layer 1" xmlns="http://www.w3.org/2000/svg" viewBox="0 0 144 144"><defs><style>.cls-1{fill:#4b4d79;}.cls-2{fill:#1b1e4c;}.cls-3{fill:#fff;}</style></defs><title>carrier-screen</title><rect class="cls-1" x="0.01" width="143.99" height="144" rx="14.57"/><path class="cls-2" d="M144,76c-19,2-45.51,4.3-66,4.3A654.88,654.88,0,0,1,0,75v54.49A14.48,14.48,0,0,0,14.48,144h115A14.48,14.48,0,0,0,144,129.49" transform="translate(0 0)"/><path class="cls-3" d="M49,122.78c14.81-.93,26.21-3.94,39.81-15.49.79-.66,5.26-5.61,5.94-6.39,8.52-9.89,9.43-20.09-1.37-28.31l0,0a1.51,1.51,0,0,1,.78-2.73c5.84-.31,10.1-2,14.76-7.81,1.33-1.68,2.85-.38,3.94.76,8.9,9.43,13.23,20.34,13.14,33.58-.06,9.46-5.81,15.85-13,21.06-9.76,7.06-21.09,10-32.79,10.9-13.31,1-30.31-1-41.34-5.55" transform="translate(0 0)"/><path class="cls-3" d="M113.12,40.34c0,13.6-6,22.36-16.33,25.13-7.34,2-15.9-2.8-20.61-8.81-1.18-1.51-.2-3,.08-4.43,1.55-7.76.7-15.08-4-21.56a5.27,5.27,0,0,1-.56-6.12C74.84,18.06,79.26,13,86.84,12c8.74-1.1,15.27,2.93,20.25,9.76A29.16,29.16,0,0,1,113.12,40.34Z" transform="translate(0 0)"/><path class="cls-3" d="M26.33,53.42A28.28,28.28,0,0,1,46.7,26.72C62,22.5,74.31,34.05,71.8,50.26,70,62.13,58.11,72.92,46.24,73.55,35,74.14,26.32,65.34,26.33,53.42Z" transform="translate(0 0)"/><path class="cls-3" d="M33.27,119.2a1.54,1.54,0,0,1-.69-.27c-11.12-7.69-13.6-15.66-8.7-28,.76-1.9,1.7-3.74,2.56-5.61C29.13,79.54,32,76.27,40,77.83c11.73,2.28,21.19-4,28.37-13.19,1.95-2.5,2.84-3.09,5.68-.57,3.57,3.17,6.25,3.73,9.34,5.67a.91.91,0,0,0,.22.11C95.74,74.47,99.9,86,92.22,96.19,81.6,110.31,67,118.2,49.33,119.63A75.06,75.06,0,0,1,33.27,119.2Z" transform="translate(0 0)"/></svg>