<?xml version="1.0" encoding="utf-8"?>
<!-- Generator: Adobe Illustrator 23.0.1, SVG Export Plug-In . SVG Version: 6.00 Build 0)  -->
<svg version="1.1" id="Layer_1" xmlns="http://www.w3.org/2000/svg" xmlns:xlink="http://www.w3.org/1999/xlink" x="0px" y="0px"
	 viewBox="0 0 144 144" style="enable-background:new 0 0 144 144;" xml:space="preserve">
<style type="text/css">
	.st0{fill:#4B4D79;}
	.st1{fill:#1B1E4C;}
	.st2{fill:#FFFFFF;}
</style>
<title>carrier-screen</title>
<path class="st0" d="M14.58,0h114.85C137.48,0,144,6.52,144,14.57v114.86c0,8.05-6.52,14.57-14.57,14.57H14.58
	c-8.05,0-14.57-6.52-14.57-14.57V14.57C0.01,6.52,6.53,0,14.58,0z"/>
<path class="st1" d="M144,76c-19,2-45.51,4.3-66,4.3C51.92,80.09,25.87,78.32,0,75v54.49c-0.02,8,6.45,14.49,14.45,14.51
	c0.01,0,0.02,0,0.03,0h115c8,0.02,14.5-6.44,14.52-14.44c0-0.02,0-0.05,0-0.07"/>
<path class="st2" d="M49,122.78c14.81-0.93,26.21-3.94,39.81-15.49c0.79-0.66,5.26-5.61,5.94-6.39c8.52-9.89,9.43-20.09-1.37-28.31
	l0,0c-0.68-0.49-0.83-1.43-0.34-2.11c0.26-0.36,0.67-0.59,1.12-0.62c5.84-0.31,10.1-2,14.76-7.81c1.33-1.68,2.85-0.38,3.94,0.76
	c8.9,9.43,13.23,20.34,13.14,33.58c-0.06,9.46-5.81,15.85-13,21.06c-9.76,7.06-21.09,10-32.79,10.9c-13.31,1-30.31-1-41.34-5.55"/>
<path class="st2" d="M113.12,40.34c0,13.6-6,22.36-16.33,25.13c-7.34,2-15.9-2.8-20.61-8.81c-1.18-1.51-0.2-3,0.08-4.43
	c1.55-7.76,0.7-15.08-4-21.56c-1.48-1.71-1.71-4.17-0.56-6.12C74.84,18.06,79.26,13,86.84,12c8.74-1.1,15.27,2.93,20.25,9.76
	C111.18,27.08,113.31,33.64,113.12,40.34z"/>
<path class="st2" d="M26.33,53.42c0.2-12.4,8.46-23.23,20.37-26.7C62,22.5,74.31,34.05,71.8,50.26C70,62.13,58.11,72.92,46.24,73.55
	C35,74.14,26.32,65.34,26.33,53.42z"/>
<path class="st2" d="M33.27,119.2c-0.25-0.03-0.49-0.13-0.69-0.27c-11.12-7.69-13.6-15.66-8.7-28c0.76-1.9,1.7-3.74,2.56-5.61
	C29.13,79.54,32,76.27,40,77.83c11.73,2.28,21.19-4,28.37-13.19c1.95-2.5,2.84-3.09,5.68-0.57c3.57,3.17,6.25,3.73,9.34,5.67
	c0.07,0.05,0.14,0.08,0.22,0.11C95.74,74.47,99.9,86,92.22,96.19C81.6,110.31,67,118.2,49.33,119.63
	C43.98,120.06,38.59,119.92,33.27,119.2z"/>
<g>
	<path class="st1" d="M38.46,116.15c7.98-0.58,15.59-2.47,22.76-6.13c4.54-2.31,8.96-4.75,12.81-8.13c0.45-0.4,1.18-0.62,0.96-1.35
		c-0.24-0.8-1-0.49-1.57-0.45c-0.51,0.04-1,0.22-1.5,0.29c-7.61,1.14-16.61-1.9-19.5-11.16c-0.6-1.93-1.7-1.36-2.83-0.88
		c-4.63,1.98-9.11,4.25-13.05,7.43c-3.91,3.16-7.94,6.23-9.4,11.42c-0.9,3.2,0.24,5.91,3.23,7.39
		C32.91,115.84,35.66,116.11,38.46,116.15z"/>
	<path class="st1" d="M74.54,70.36c10.12-0.49,14.55,10.81,9.53,18.72c-3.34,5.27-7.99,8.38-14.33,8.53
		c-8.92,0.2-14-6.52-12.23-15.25C58.71,76.5,67.73,69.03,74.54,70.36z"/>
</g>
</svg>
